<svg width="48" height="48" viewBox="0 0 100 100" fill="none" xmlns="http://www.w3.org/2000/svg">
  <rect width="100" height="100" rx="22" fill="#0fbca2" />
  <path d="M32 75 C32 75, 45 80, 58 80 C68 80, 78 72, 74 62 C71 54, 62 48, 62 38 C62 34, 64 28, 68 24 C71 21, 67 12, 60 14 C56 15, 52 20, 50 24 C45 28, 40 33, 35 38 C32 41, 32 45, 34 49 L46 45 C46 45, 44 54, 48 58 C52 62, 58 64, 52 70 C48 74, 40 73, 32 75 Z" fill="#FFF9E6" />
  <path d="M26 53 L38 48 C38 48, 42 54, 48 52 C48 52, 42 58, 36 57 C30 56, 26 53, 26 53 Z" fill="#FFF9E6" stroke="#0fbca2" stroke-width="1.5" stroke-linejoin="round" />
  <circle cx="58" cy="27" r="2.5" fill="#096e5e" />
</svg>
